<?xml version="1.0" encoding="UTF-8"?>
<svg xmlns="http://www.w3.org/2000/svg" viewBox="0 0 512 512" role="img" aria-labelledby="variation-5-palette-04-greyscale-title variation-5-palette-04-greyscale-desc">
  <title id="variation-5-palette-04-greyscale-title">Myn origami seagull icon, greyscale</title>
  <desc id="variation-5-palette-04-greyscale-desc">A greyscale origami-style seagull mark.</desc>
  <path d="M0 0 C10.74 2.32 21.24 5.3 31.78 8.38 C36.81 9.85 41.84 11.31 46.87 12.77 C47.85 13.06 48.83 13.34 49.84 13.64 C57.15 15.76 64.48 17.84 71.81 19.88 C81 22.43 90.16 25.07 99.3 27.78 C103.53 29.03 107.68 30.14 112 31 C112.52 52.66 111.01 74.06 109.39 95.65 C108.79 103.83 108.3 112.01 107.81 120.19 C107.73 121.59 107.65 123 107.56 124.45 C107.37 127.63 107.19 130.82 107 134 C97.43 124.63 89.39 113.98 81.32 103.32 C78.12 99.15 74.83 95.07 71.5 91 C67.06 85.58 62.74 80.08 58.5 74.5 C53.18 67.49 47.69 60.65 42.12 53.84 C36.42 46.83 30.89 39.7 25.33 32.58 C19.27 24.83 13.1 17.19 6.85 9.59 C4.38 6.48 2.14 3.34 0 0 Z" fill="#474747" transform="translate(111 134)"/>
  <path d="M0 0 C4.49 2.25 6.96 5.14 10.23 8.88 C13.47 12.53 16.79 16.07 20.12 19.62 C24.85 24.67 29.47 29.78 34 35 C35.83 37 37.66 39 39.5 41 C43.74 45.61 47.89 50.28 52 55 C53.46 56.61 54.92 58.21 56.38 59.81 C59.58 63.35 62.63 66.97 65.62 70.69 C68.15 73.81 70.65 76.65 73.5 79.5 C77.19 83.19 80.43 87.09 83.69 91.16 C86.4 94.49 89.21 97.74 92 101 C59.99 101 27.98 101 -5 101 C-5 87.36 -4.81 74.02 -3.91 60.45 C-3.8 58.7 -3.68 56.96 -3.57 55.16 C-3.22 49.67 -2.86 44.18 -2.5 38.69 C-2.26 34.93 -2.02 31.17 -1.78 27.41 C-1.19 18.27 -0.6 9.14 0 0 Z" fill="#5E5E5E" transform="translate(229 172)"/>
  <path d="M0 0 C31.68 0 63.36 0 96 0 C92.77 3.23 90.06 5.46 86.3 7.94 C85.74 8.31 85.74 8.31 82.92 10.19 C82.32 10.58 82.32 10.58 79.31 12.56 C78.08 13.38 76.85 14.19 75.58 15.03 C68.08 20 60.53 24.9 52.95 29.77 C45.8 34.43 38.72 39.19 31.62 43.94 C21.43 50.75 11.2 57.46 0.8 63.95 C-6.59 68.65 -13.85 73.54 -21.12 78.41 C-42.37 92.62 -42.37 92.62 -53 99 C-50.88 93.69 -48.33 88.69 -45.69 83.62 C-45.16 82.61 -44.63 81.6 -44.09 80.56 C-39.79 72.39 -35.29 64.36 -30.72 56.35 C-26.51 48.96 -22.54 41.47 -18.62 33.93 C-15 27.12 -11.2 20.43 -7.38 13.74 C-4.79 9.2 -2.34 4.67 0 0 Z" fill="#5E5E5E" transform="translate(221 279)"/>
  <path d="M0 0 C0.33 0.17 0.33 0.17 2 1 C-19.38 41.06 -19.38 41.06 -26 51 C-27.01 50.84 -28.03 50.68 -29.08 50.51 C-49.38 47.3 -69.68 44.1 -90 41 C-90 40.34 -90 39.68 -90 39 C-88.58 38.4 -87.15 37.81 -85.68 37.19 C-71.89 31.39 -58.15 25.48 -44.44 19.5 C-42.77 18.77 -41.11 18.05 -39.39 17.3 C-31.92 14.04 -24.45 10.77 -17.02 7.43 C-15.85 6.91 -14.68 6.38 -13.47 5.85 C-11.34 4.89 -9.21 3.93 -7.08 2.96 C-4.75 1.91 -2.38 0.95 0 0 Z" fill="#5E5E5E" transform="translate(209 286)"/>
  <path d="M0 0 C-1.54 3.84 -3.15 7.36 -5.05 11.02 C-5.66 12.2 -6.27 13.37 -6.9 14.59 C-7.23 15.21 -7.23 15.21 -8.88 18.38 C-9.54 19.66 -10.21 20.94 -10.9 22.27 C-12.26 24.9 -13.63 27.53 -15 30.17 C-16.86 33.73 -18.71 37.29 -20.55 40.85 C-21.62 42.9 -22.68 44.95 -23.75 47 C-24.24 47.94 -24.73 48.88 -25.23 49.85 C-27.38 53.98 -29.6 58 -32 62 C-37.03 59.48 -39.36 56.3 -43 52 C-44.49 50.33 -45.99 48.66 -47.5 47 C-54.55 39.17 -61.36 31.19 -68 23 C-67 21 -67 21 -63.5 19.71 C-62.72 19.46 -62.72 19.46 -58.78 18.24 C-57.05 17.7 -55.33 17.16 -53.55 16.61 C-52.62 16.32 -52.62 16.32 -47.94 14.88 C-44.18 13.7 -40.43 12.53 -36.68 11.36 C-35.76 11.07 -35.76 11.07 -31.14 9.62 C-22.72 6.96 -14.36 4.14 -6 1.29 C-2 0 -2 0 0 0 Z" fill="#5E5E5E" transform="translate(359 207)"/>
  <path d="M0 0 C4.9 0.61 9.02 2.06 13.59 3.94 C15.01 4.52 16.43 5.11 17.9 5.71 C18.64 6.01 18.64 6.01 22.38 7.56 C23.87 8.18 25.37 8.79 26.92 9.43 C30.61 10.95 34.31 12.47 38 14 C38 14.66 38 15.32 38 16 C31.99 17.15 25.97 18.29 19.96 19.42 C17.91 19.8 15.87 20.19 13.82 20.58 C10.88 21.14 7.94 21.7 4.99 22.25 C3.22 22.59 1.45 22.92 -0.37 23.27 C-5 24 -5 24 -11 24 C-9.4 18.55 -6.94 13.68 -4.38 8.62 C-3.56 7.01 -2.74 5.39 -1.9 3.73 C-1.27 2.5 -0.65 1.27 0 0 Z" fill="#474747" transform="translate(365 207)"/>
  <path d="M0 0 C0.99 0 1.98 0 3 0 C3.33 0.99 3.66 1.98 4 3 C4.33 3.66 4.66 4.32 5 5 C3.71 7.78 3.71 7.78 1.74 11.29 C1.03 12.56 0.32 13.83 -0.4 15.14 C-0.78 15.81 -0.78 15.81 -2.69 19.19 C-3.42 20.5 -4.16 21.82 -4.91 23.17 C-6.93 26.79 -8.96 30.4 -11 34 C-11.34 34.64 -11.34 34.64 -13.05 37.88 C-15 41 -15 41 -18.12 41.88 C-19.07 41.92 -20.02 41.96 -21 42 C-21.33 42.17 -21.33 42.17 -23 43 C-20.71 37.27 -17.82 31.97 -14.88 26.56 C-14.29 25.49 -13.71 24.43 -13.11 23.32 C-8.84 15.49 -4.49 7.71 0 0 Z" fill="#EFEFEF" transform="translate(209 289)"/>
</svg>
